<svg xmlns="http://www.w3.org/2000/svg" xmlns:xlink="http://www.w3.org/1999/xlink" width="10" height="12" viewBox="0 0 10 12"><defs><path id="cye0a" d="M1098 370v-12h10v12zm1-3c0 1.1.9 2 2 2h3.84a2 2 0 0 0 2-2v-6a2 2 0 0 0-2-2H1101a2 2 0 0 0-2 2z"/><path id="cye0b" d="M1099 361c0-1.1.9-2 2-2h3.84a2 2 0 0 1 2 2v6a2 2 0 0 1-2 2H1101a2 2 0 0 1-2-2z"/><clipPath id="cye0c"><use fill="#fff" xlink:href="#cye0a"/></clipPath></defs><g><g transform="translate(-1098 -358)"><use fill="#fff" xlink:href="#cye0b"/><use fill="#fff" fill-opacity="0" stroke="#7e8fa5" stroke-miterlimit="50" stroke-width="2" clip-path="url(&quot;#cye0c&quot;)" xlink:href="#cye0b"/></g></g></svg>