<svg xmlns="http://www.w3.org/2000/svg" xmlns:xlink="http://www.w3.org/1999/xlink" width="10" height="12" viewBox="0 0 10 12"><defs><path id="q6qza" d="M1098 370v-12h10v12zm1-3c0 1.1.9 2 2 2h3.84a2 2 0 0 0 2-2v-6a2 2 0 0 0-2-2H1101a2 2 0 0 0-2 2z"/><path id="q6qzb" d="M1099 361c0-1.1.9-2 2-2h3.84a2 2 0 0 1 2 2v6a2 2 0 0 1-2 2H1101a2 2 0 0 1-2-2z"/><path id="q6qzd" d="M1101 364.05l1.54 1.95 3.16-4"/><clipPath id="q6qzc"><use fill="#fff" xlink:href="#q6qza"/></clipPath></defs><g><g transform="translate(-1098 -358)"><use fill="#fff" xlink:href="#q6qzb"/><use fill="#fff" fill-opacity="0" stroke="#7e8fa5" stroke-miterlimit="50" stroke-width="2" clip-path="url(&quot;#q6qzc&quot;)" xlink:href="#q6qzb"/></g><g transform="translate(-1098 -358)"><use fill="#fff" fill-opacity="0" stroke="#00bb28" stroke-miterlimit="50" stroke-width="1.75" xlink:href="#q6qzd"/></g></g></svg>