<svg xmlns="http://www.w3.org/2000/svg" xmlns:xlink="http://www.w3.org/1999/xlink" width="15" height="14" viewBox="0 0 15 14"><defs><path id="aq9ua" d="M1028.04 372.14a6 6 0 0 1-2.35 1.7 8.06 8.06 0 0 1-4.28.57l-.48-.06-.36.35a8.17 8.17 0 0 1-2.3 1.55c.26-.49.45-1 .59-1.56l.22-.87-.73-.46a5.26 5.26 0 0 1-1.68-1.6c-.4-.61-.6-1.26-.6-1.94 0-.83.3-1.6.87-2.32a6 6 0 0 1 2.36-1.7 8.06 8.06 0 0 1 3.2-.64c1.13 0 2.2.22 3.19.64a6 6 0 0 1 2.35 1.7c.59.72.88 1.5.88 2.32 0 .83-.3 1.6-.88 2.32zm.95-5.24a6.83 6.83 0 0 0-2.73-2.12 9.04 9.04 0 0 0-3.77-.78c-1.36 0-2.61.26-3.76.78a6.83 6.83 0 0 0-2.73 2.12 4.78 4.78 0 0 0-.24 5.48c.5.8 1.2 1.46 2.07 2a6.16 6.16 0 0 1-.72 1.7 4.7 4.7 0 0 1-.55.7 30.36 30.36 0 0 0-.38.47l-.05.08-.04.09-.02.09v.1c.03.12.08.2.14.27.07.06.15.1.23.1a8.92 8.92 0 0 0 4.84-2.4c.42.04.82.06 1.21.06 1.37 0 2.62-.26 3.77-.77a6.83 6.83 0 0 0 2.73-2.12 4.78 4.78 0 0 0 0-5.85z"/></defs><g><g transform="translate(-1015 -364)"><use fill="#7e8fa5" xlink:href="#aq9ua"/></g></g></svg>